<?xml version="1.0" encoding="UTF-8"?><svg id="Layer_10" xmlns="http://www.w3.org/2000/svg" width="251.13" height="263.44" viewBox="0 0 251.13 263.44"><defs><style>.cls-1{fill:#4bbfbe;}.cls-1,.cls-2,.cls-3,.cls-4{stroke-width:0px;}.cls-2{fill:#38883e;}.cls-3{fill:#fff;}.cls-4{fill:#39b54a;}</style></defs><path class="cls-1" d="m207.85,212.39c-10.11-7.19-26.06-4.2-37.57,1.91-2.26,1-4.07,2.96-5.76,4.57-.03.03-.06.05-.09.08-3,3.79-5.59,8.51-10.24,11.12-12.92,7.24-33.13,5.11-39.95-9.53-3.26-6.98-2.71-16.34,2.73-22.13,5.75-6.13,14.12-5.72,20.91-1.59,5.49,3.35.46,11.99-5.05,8.63-6.06-3.69-11.15-.22-10.56,6.9.52,6.3,5.88,10.29,11.75,11.46,9.41,1.87,19.85-2.54,22.64-12.1,3.43-11.78-.78-23.82-9.1-32.44-8.24-8.52-18.67-12.45-30.38-12.34-9.85.1-21.79,2.05-28.33,10.16-.02.03-.05.05-.07.08-.34.46-.78.88-1.34,1.24-8.26,5.4-18.31,6.83-27.73,3.95-5.49-1.68-9.4-4.7-11.77-8.87-5.33-7.74-3.8-18.77,7.11-21.1,6.29-1.34,8.95,8.3,2.66,9.64-1.2.26-2.01.69-2.48,1.25.14,2.21.72,4.02,1.65,5.48,2.96,2.99,7.46,2.55,11.37,1.86,4.52-.8,10.19-2.66,11.56-7.58,1.75-6.29-1.42-13.77-4.43-19.16-6.45-11.54-17.91-19.28-31.49-18.22-9.36.74-22.57,4.55-23.71,15.56-.32,3.08-2.83,4.67-5.26,4.77,2.16,65.23,55.7,117.44,121.46,117.44,23.11,0,44.71-6.45,63.1-17.64-3.07-.14-6.05-1.12-8.63-3.23-7.41-6.05-6.35-18.22,2.24-22.59,5.73-2.91,10.78,5.72,5.05,8.63-2.66,1.35-3.39,5.07-.35,6.63,3.71,1.91,9-.93,11.65-3.38,6.04-5.6,5.06-14.75-1.58-19.47Z"/><path class="cls-2" d="m14.91,146.77c-5.17-1.28-7.58-24.03-.44-43.44,5.02-13.66,9.78-12.08,20.09-32.68,8.03-16.05,6.15-19.02,12.26-25.19,7.27-7.34,12.7-4.55,34.64-11.47,27.81-8.78,26.8-16.55,38.55-15.08,15.35,1.92,15.5,10.3,40,13.04,21.35,2.38,27.97-2.08,42.04,3.06,15.97,5.84,23.41,22.45,22.19,23.64-.89.88-10.36-11.79-21.08-16.92-10.66-5.09-16.49,0-25.96-1.7-14.21-2.55-15.69,1.43-23.15-.51-11.51-2.99-13.44-8-24.51-9.72-6.6-1.03-12.41-2.49-18.72-1.17-12.53,2.62-12.82,8.62-25.19,12.41-16.62,5.09-21.33.81-28.94,6.81-4.98,3.93-3.84,5.24-10.72,18.32-9.08,17.23-14.79,17.99-21.96,33.7-4.77,10.46-5.79,16.09-5.45,22.54.48,9.02,5.05,16.15,1.09,21.47-.22.3-2.61,3.44-4.73,2.91Z"/><path class="cls-4" d="m6.64,125.65c-.3-.19-6.39-4.12-6.63-10.77-.1-2.86.99-2.94,3.85-11.71,1.37-4.2,1.73-6.05,2.15-6,1,.11-2.06,10.33,2.12,21.25,1.51,3.95,3.78,7.49,2.7,8.45-.93.82-3.62-.86-4.18-1.21Z"/><path class="cls-4" d="m17.16,115.81c5.32-7.53,9.67-9.47,14.26-15.3,5.54-7.03,7-14.1,9.2-13.63.88.19,1.28,1.45,1.44,1.93,1.41,4.37-3.42,7.65-8.44,16.66-3.68,6.59-3.26,8.73-7.25,13.22-1.43,1.61-5.53,6.22-9.02,5.23-.17-.05-1.56-.47-2.16-1.69-1.01-2.03.85-4.84,1.96-6.42Z"/><path class="cls-4" d="m26.24,88.36c-2.3,0-5.06-12.52-4.81-24.07.25-11.96,3.68-20.85,5.61-25.73.3-.75,2.11-5.26,5.54-10.59,2.37-3.69,6.02-9.37,8.04-8.71,1.8.59,1.87,6.11,1.28,10.13-1.71,11.52-9.31,13.67-10.01,23.78-.31,4.51,1.17,4.46.89,11.05-.21,4.97-1.22,8.79-2.53,13.6-1.9,7.03-2.86,10.54-4,10.54Z"/><path class="cls-4" d="m71.22,37.74c-1.17-.48-.34-6.97,2.38-12.43,2.79-5.58,6.85-8.68,9.53-10.72.71-.54,6.87-5.2,8-4.09.91.9-1.72,5.29-4.09,8.17-2.7,3.28-3.55,2.77-6.13,5.96-2.38,2.95-2.19,4.06-5.28,8.34-2.06,2.86-3.66,5.08-4.43,4.77Z"/><path class="cls-4" d="m78.41,40.17c-.5.71,4.71,6.2,11.75,9.38,3.53,1.59,7.27,3.22,10.94,1.65,1.9-.81,4.35-2.72,4.06-4.39-.52-3.03-9.9-3.99-12.25-4.23-4.5-.46-6.77.06-11.23-1.4-2.08-.68-3.07-1.29-3.27-1.01Z"/><path class="cls-4" d="m114.8,20.06c-.79-1.5,5.08-5.93,11.84-11.04,8.75-6.61,12.59-7.95,15.65-8.56,1.5-.3,4.87-.84,8.97-.03,2.33.47,6.87,1.37,7.23,3.46.44,2.59-5.57,6.74-11.62,7.69-4.04.64-4.83-.67-8.69.26-4.08.98-5.04,2.88-9.28,5.18-5.9,3.2-13.3,4.53-14.08,3.04Z"/><path class="cls-4" d="m135.25,29.04c-1.61.93-.42,7.07,2.1,11.86,1.4,2.66,3.79,5.06,8.5,9.73,4.72,4.69,7.14,7.06,9.79,8.43,1.64.84,4.45,1.57,10.08,3.02,4.15,1.07,5.78,1.29,6.96.33,1.2-.98,1.61-2.94,1.14-4.46-.66-2.1-2.93-3.05-6.93-4.48-10.76-3.86-15.71-4.65-16.45-7.65-.31-1.28.49-1.54.09-3.1-.72-2.8-3.45-2.65-6.63-5.99-2.47-2.59-2.16-4.1-5.03-6.19-1.17-.86-2.73-1.99-3.61-1.49Z"/><path class="cls-4" d="m203,35.29c3.52,2.8,8.21.91,15.17,2.46.77.17,2.02.34,7.24,1.09,10.27,1.47,9.67,8.06,13.67,9.39,3.95,1.32,9.25,3.1,11.25.92,2.64-2.87-1.87-11.07-4.47-14.76-.58-.82-3.34-4.65-8.44-8.08-3.52-2.36-7.21-3.5-12.5-3.51-2.9,0-6.04-.14-11.85,2.57-7.25,3.38-15.47,6.02-15.48,9.18,0,1.93,5.26.61,5.42.73Z"/><path class="cls-3" d="m96.59,126.34c-1.35.59-2.66.95-4.09.68-11.05-2.15-14.89-39.68-9.53-41.54.34-.11,1.21-.26,3.4,1.71,11.61,10.42,6.54,32.07,10.22,33.02,4.95,1.27,16.71-37.34,18.72-36.77,1.87.53-2.19,35.56-18.72,42.9Z"/><path class="cls-3" d="m192.12,108.78c-.47,1.98-1.94,8.2-7.41,10.98-4.64,2.36-11.26,1.79-12.51-.9-.66-1.41.34-3.05.89-4.21,5.31-11.07-6.88-26.8-3.57-29.1,1.25-.87,4,.65,5.45,2.25,2.29,2.53,1.86,5.84,1.83,10.38-.04,5.15-.13,16.78,3.32,18,2.15.77,5.38-2.62,6.89-5.1,3.22-5.32,1.91-12.15-.64-16.6-3.89-6.81-13.68-8.45-13.31-9.22.33-.67,8.7-.18,13.18,3.73,5.54,4.84,7.48,12.97,5.88,19.79Z"/><path class="cls-3" d="m160.16,113.74c1.19,1.13,1.66,3.26.89,4.21-.15.19-.61.66-3.19.51-4.03-.23-5.38-1.54-7.91-.89-1.5.38-1.53.97-2.17.89-4.65-.52-8.01-31.33-.64-34.98.31-.15,1.13-.55,1.91-.25,1.44.55,2.18,3.27,1.54,13.66-.69,11.09-1.93,14.68.12,16.21,2.55,1.89,6.9-1.78,9.45.64Z"/><path class="cls-3" d="m131.77,90.08c3.9,16.65,7.31,31.16,2.77,33.63-1.44.78-3.18.09-3.41,0-9.6-3.96-4.41-41.48-1.7-41.53.47,0,1.1,2.63,2.34,7.9Z"/><path class="cls-3" d="m151.97,160.93c.74,1.95,2.5,6.47.76,10.85-.3.75-.93,2.34-1.66,2.3-1.51-.08-2.04-7.07-4.59-20.55-1.44-7.6-2.06-9.56-2.81-9.58-1.56-.02-3.34,8.4-8.94,22.73-.81,2.08-1.6,4.02-2.81,4.08-2.22.11-3.66-6.34-7.66-15.83-1.97-4.68-7-16.62-9.32-16.08-1.7.39-.63,7.25-2.42,21.7-1.45,11.66-3.24,15.99-6.38,17.1-.38.14-2.27.81-3.71-.12-5.51-3.58,6.51-23.72,9.71-39.71.1-.54.33-1.72,1.14-2.04,2.83-1.1,11.09,8.85,15.07,20.56,1.95,5.73,2.27,10.11,3.32,10.08,1.59-.05,2.06-10.13,8.04-22.72,1.57-3.31,2.4-4.42,3.45-4.47,2.57-.11,2.93,6.32,8.81,21.7Z"/><path class="cls-3" d="m184.03,158.48c1.65,6.9,2.37,16.81-.13,17.62-1.15.37-2.83-1.23-3.7-2.55-3.92-5.91,2.7-14.31-.39-17.24-1.53-1.45-5.03-1.16-7.14.39-5.1,3.74-.38,13.63-5.88,17.74-1.45,1.09-3.71,1.84-4.72,1.02-1.98-1.61,2.47-8.02,6.26-19.91,3.55-11.16,3.55-17.87,5.74-18,1.39-.09,2.76,2.96,5.49,9.06,2.26,5.06,3.49,7.81,4.47,11.87Z"/><path class="cls-3" d="m223.67,165.5c-4.58,8.49-15.63,12.96-21.83,9.96-.43-.21-3.66-1.82-4.34-4.85-.58-2.57,1.04-4.55,1.92-6.38,4.74-9.99-8.87-23.78-4.47-28.73.2-.22.74-.82,1.53-.89,2.52-.23,5.41,5.13,6.64,9.58,2.02,7.35-1.26,9.58.64,16.97.62,2.43,2.16,8.48,6.25,9.45,3.45.82,7.37-2.28,9.19-5.36,3.59-6.07.46-14.47-3.06-19.4-6.81-9.56-18.57-11.06-18.26-12,.26-.78,8.22.08,15.83,4.59,4.04,2.4,8.68,5.15,10.98,10.98,3.17,8.04-.67,15.43-1.02,16.08Z"/></svg>