<?xml version="1.0" encoding="UTF-8"?>
<svg id="Layer_5" data-name="Layer 5" xmlns="http://www.w3.org/2000/svg" xmlns:xlink="http://www.w3.org/1999/xlink" viewBox="0 0 1984.57 911.01">
  <defs>
    <style>
      .cls-1 {
        fill: #38883e;
      }

      .cls-1, .cls-2, .cls-3, .cls-4 {
        stroke-width: 0px;
      }

      .cls-2 {
        fill: none;
      }

      .cls-3 {
        fill: #75b239;
      }

      .cls-5 {
        clip-path: url(#clippath);
      }

      .cls-4 {
        fill: #39b54a;
      }
    </style>
    <clipPath id="clippath">
      <rect class="cls-2" y="313.02" width="1985.88" height="597.99"/>
    </clipPath>
  </defs>
  <g class="cls-5">
    <g>
      <path class="cls-3" d="m489.93,721.09c-6.76,3.73-32.85,16.94-61.01,7.14-2.39-.83-9.16-3.18-15.3-6.85-4.76,5.75-17.21,19.54-27.18,16.47-4.82-1.48-8.23-6.63-10.52-13.68-1.84.88-3.33,1.53-4.21,1.91-27.32,11.91-54.35.74-61.38-2.48-25.94-11.87-46.83-37.61-41.92-46.22,1.64-2.86,5.64-3,21.18-3.28,8.89-.16,16.5-.31,22.9-.4-2.19-1.72-3.87-3.2-4.94-4.19-21.02-19.28-32.94-50.23-25.62-56.9,2.43-2.22,6.29-1.11,21.16,3.41,5.4,1.65,10.29,3.13,14.72,4.49-1.46-1.86-2.55-3.39-3.28-4.45-16.15-23.54-20.81-56.36-12.18-61.22,2.87-1.61,6.38.33,19.85,8.08,8.49,4.88,15.63,8.99,21.48,12.37-.13-.8-.23-1.48-.32-2.05-4.06-28.24,6.27-59.74,16.16-60.27,3.3-.18,5.59,3.11,14.23,16.02.69,1.02,1.35,2.02,2,3,1.47-5.04,3.16-10.74,5.02-17.11,4.37-14.92,5.57-18.75,8.75-19.56,7.74-1.99,21.82,15.17,29.4,36.67,2.21-3.23,4.63-6.74,7.23-10.53,8.81-12.81,11.13-16.09,14.42-15.87,9.88.65,19.86,32.28,15.44,60.46-.29,1.85-.84,4.94-1.85,8.79,6.04-3.68,13.57-8.27,22.65-13.79,13.28-8.07,16.74-10.1,19.65-8.56,8.76,4.65,4.88,37.57-10.69,61.49-1.6,2.45-5.02,7.4-10.23,12.86,7.05-.99,15.88-2.23,26.58-3.73,15.4-2.15,19.38-2.64,21.44-.07,5.65,7.03-7.64,31.52-28.04,47.74,3.51-.21,7.3-.43,11.34-.67,15.52-.91,19.52-1.06,21.37,1.67,5.54,8.2-13.33,35.47-38.29,49.28Z"/>
      <path class="cls-4" d="m267.58,755.3c2.04,25.99-27.43,49.51-65.81,52.53-21.46,1.68-41.17-3.4-54.74-12.75-15.33,18.41-43.03,31.93-75.49,34.48-29.47,2.31-56.48-4.92-74.69-18.09-1,.12-2,.22-3.01.3-36.06,2.83-67.22-19.3-69.58-49.42-2.21-28.2,21.59-53.42,54.23-58.85-.86-24.49,18.82-46.6,47.22-55.62,4.94-23.61,28.51-42.68,58.23-45.01,29.04-2.28,54.78,12.16,63.93,33.87,4.11-.87,8.38-1.48,12.75-1.82,40.72-3.2,75.63,18.44,77.97,48.32.94,12.02-3.53,23.54-11.85,33.23,22.92,6.09,39.39,20.67,40.82,38.86Z"/>
      <path class="cls-3" d="m2013.93,654.53c-6.76,3.73-32.85,16.94-61.01,7.14-2.39-.83-9.16-3.18-15.3-6.85-4.76,5.75-17.21,19.54-27.18,16.47-4.82-1.48-8.23-6.63-10.52-13.68-1.84.88-3.33,1.53-4.21,1.91-27.32,11.91-54.35.74-61.38-2.48-25.94-11.87-46.83-37.61-41.92-46.22,1.64-2.86,5.64-3,21.18-3.28,8.89-.16,16.5-.31,22.9-.4-2.19-1.72-3.87-3.2-4.94-4.19-21.02-19.28-32.94-50.23-25.62-56.9,2.43-2.22,6.29-1.11,21.16,3.41,5.4,1.65,10.29,3.13,14.72,4.49-1.46-1.86-2.55-3.39-3.28-4.45-16.15-23.54-20.81-56.36-12.18-61.22,2.87-1.61,6.38.33,19.85,8.08,8.49,4.88,15.63,8.99,21.48,12.37-.13-.8-.23-1.48-.32-2.05-4.06-28.24,6.27-59.74,16.16-60.27,3.3-.18,5.59,3.11,14.23,16.02.69,1.02,1.35,2.02,2,3,1.47-5.04,3.16-10.74,5.02-17.11,4.37-14.92,5.57-18.75,8.75-19.56,7.74-1.99,21.82,15.17,29.4,36.67,2.21-3.23,4.63-6.74,7.23-10.53,8.81-12.81,11.13-16.09,14.42-15.87,9.88.65,19.86,32.28,15.44,60.46-.29,1.85-.84,4.94-1.85,8.79,6.04-3.68,13.57-8.27,22.65-13.79,13.28-8.07,16.74-10.1,19.65-8.56,8.76,4.65,4.88,37.57-10.69,61.49-1.6,2.45-5.02,7.4-10.23,12.86,7.05-.99,15.88-2.23,26.58-3.73,15.4-2.15,19.38-2.64,21.44-.07,5.65,7.03-7.64,31.52-28.04,47.74,3.51-.21,7.3-.43,11.34-.67,15.52-.91,19.52-1.06,21.37,1.67,5.54,8.2-13.33,35.47-38.29,49.28Z"/>
      <path class="cls-4" d="m1204.98,743.48c-5.09-16.65,5.7-35.12,24.54-41.6,3.07-1.06,6.17-1.73,9.23-2.04,1.07-20.13,14.68-38.84,35.65-46.06,15.33-5.27,31.32-3.29,43.99,4.09,5.99-8.3,14.51-14.89,24.92-18.48,26.88-9.25,56.17,5.05,65.42,31.92,1.84,5.34,2.75,10.77,2.81,16.13-1.25,1-2.44,2.07-3.58,3.19,1.14.59,2.26,1.2,3.39,1.82.15-1.66.21-3.33.19-5,4.31-3.49,9.24-6.28,14.71-8.16,19.71-6.78,41.12-.05,55.87,15.47,5.81-4.33,12.44-7.88,19.76-10.4,25.6-8.81,52.36-2.55,68.86,13.93,6.26-5.34,13.88-9.75,22.54-12.73,25.33-8.72,51.26-2.31,63.16,14.19,25.49-6.91,51.3,4.31,58.84,26.25,2.82,8.19,2.71,16.77.21,24.83,15.19-1.66,29.56,2.75,39.05,11.69l-381.64,78.3c-.59-.11-1.24-.11-1.94.04l-176.27,36.16c-2.63-5.16-4.93-10.55-6.86-16.16-13.81-40.12-6.12-82.86,17.16-117.39Z"/>
      <path class="cls-4" d="m1317.33,821.71c-8.04,23.14-37.7,33.86-66.25,23.94-15.96-5.55-28.19-16.37-34.47-28.88-17.69,10.91-42.43,13.56-66.57,5.18-21.92-7.62-38.58-22.68-46.78-40.01-.76-.22-1.51-.46-2.26-.72-26.82-9.32-41-38.61-31.68-65.43,8.72-25.11,34.96-39.14,60.28-33.18,8.33-21.45,30.48-34.15,54.09-32.68,12.16-18.8,35.98-27.6,58.08-19.92,21.59,7.5,34.72,28.38,33.33,50.14,3.26.59,6.53,1.45,9.78,2.58,30.28,10.52,47.33,40.61,38.08,67.22-3.72,10.7-11.12,19.2-20.61,24.86,14.16,12.74,20.61,30.72,14.98,46.91Z"/>
      <path class="cls-4" d="m885.4,754.96c1.92-24.42-20.95-46.14-51.08-48.5-16.84-1.32-32.39,3.69-43.16,12.63-11.83-17.09-33.43-29.45-58.9-31.45-23.13-1.82-44.44,5.3-58.9,17.88-.78-.1-1.57-.18-2.36-.24-28.3-2.22-53.05,18.92-55.27,47.22-2.08,26.5,16.32,49.88,41.9,54.58-.97,22.99,14.22,43.51,36.43,51.63,3.6,22.1,21.89,39.71,45.21,41.54,22.79,1.79,43.19-12.07,50.64-32.55,3.22.77,6.57,1.29,10,1.56,31.96,2.51,59.65-18.22,61.85-46.29.89-11.29-2.49-22.05-8.91-31.04,18.08-5.99,31.2-19.87,32.54-36.96Z"/>
      <path class="cls-4" d="m216.02,725.71c-1.65-17.33,12.64-33.25,32.4-35.82,3.22-.42,6.39-.46,9.45-.15,5.09-19.51,22.19-35.1,44.18-37.95,16.08-2.09,31.35,3.07,42.28,12.84,7.53-6.93,17.21-11.67,28.13-13.09,28.19-3.66,54.01,16.23,57.67,44.42.73,5.6.52,11.1-.49,16.37-1.43.73-2.81,1.53-4.15,2.4,1,.81,1.98,1.63,2.95,2.46.48-1.59.87-3.22,1.19-4.86,4.92-2.55,10.31-4.29,16.04-5.04,20.67-2.68,40.29,8.21,51.62,26.39,6.56-3.07,13.77-5.22,21.45-6.21,26.84-3.48,51.8,8.03,64.66,27.49,7.21-3.97,15.56-6.76,24.63-7.94,26.57-3.45,50.68,8.04,59.01,26.59,26.36-1.65,49.38,14.53,52.37,37.54,1.11,8.59-.71,16.97-4.78,24.37,15.21,1.42,28.41,8.63,35.9,19.3h-389.59c-.56-.22-1.19-.35-1.91-.35h-179.94c-1.54-5.58-2.71-11.32-3.47-17.21-5.46-42.08,10.66-82.4,40.41-111.55Z"/>
      <path class="cls-4" d="m1849.99,698.44c1.92,24.42-20.95,46.14-51.08,48.5-16.84,1.32-32.39-3.69-43.16-12.63-11.83,17.09-33.43,29.45-58.9,31.45-23.13,1.82-44.44-5.3-58.9-17.88-.78.1-1.57.18-2.36.24-28.3,2.22-53.05-18.92-55.27-47.22-2.08-26.5,16.32-49.88,41.9-54.58-.97-22.99,14.22-43.51,36.43-51.63,3.6-22.1,21.89-39.71,45.21-41.54,22.79-1.79,43.19,12.07,50.64,32.55,3.22-.77,6.57-1.29,10-1.56,31.96-2.51,59.65,18.22,61.85,46.29.89,11.29-2.49,22.05-8.91,31.04,18.08,5.99,31.2,19.87,32.54,36.96Z"/>
      <path class="cls-4" d="m2002.26,647.88c1.65-17.33-12.64-33.25-32.4-35.82-3.22-.42-6.39-.46-9.45-.15-5.09-19.51-22.19-35.1-44.18-37.95-16.08-2.09-31.35,3.07-42.28,12.84-7.53-6.93-17.21-11.67-28.13-13.09-28.19-3.66-54.01,16.23-57.67,44.42-.73,5.6-.52,11.1.49,16.37,1.43.73,2.81,1.53,4.15,2.4-1,.81-1.98,1.63-2.95,2.46-.48-1.59-.87-3.22-1.19-4.86-4.92-2.55-10.31-4.29-16.04-5.04-20.67-2.68-40.29,8.21-51.62,26.39-6.56-3.07-13.77-5.22-21.45-6.21-26.84-3.48-51.8,8.03-64.66,27.49-7.21-3.97-15.56-6.76-24.63-7.94-26.57-3.45-50.68,8.04-59.01,26.59-26.36-1.65-49.38,14.53-52.37,37.54-1.11,8.59.71,16.97,4.78,24.37-15.21,1.42-28.41,8.63-35.9,19.3h389.59c.56-.22,1.19-.35,1.91-.35h179.94c1.54-5.58,2.71-11.32,3.47-17.21,5.46-42.08-10.66-82.4-40.41-111.55Z"/>
      <path class="cls-3" d="m664.64,910.09c-6.76,3.73-32.85,16.94-61.01,7.14-2.39-.83-9.16-3.18-15.3-6.85-4.76,5.75-17.21,19.54-27.18,16.47-4.82-1.48-8.23-6.63-10.52-13.68-1.84.88-3.33,1.53-4.21,1.91-27.32,11.91-54.35.74-61.38-2.48-25.94-11.87-46.83-37.61-41.92-46.22,1.64-2.86,5.64-3,21.18-3.28,8.89-.16,16.5-.31,22.9-.4-2.19-1.72-3.87-3.2-4.94-4.19-21.02-19.28-32.94-50.23-25.62-56.9,2.43-2.22,6.29-1.11,21.16,3.41,5.4,1.65,10.29,3.13,14.72,4.49-1.46-1.86-2.55-3.39-3.28-4.45-16.15-23.54-20.81-56.36-12.18-61.22,2.87-1.61,6.38.33,19.85,8.08,8.49,4.88,15.63,8.99,21.48,12.37-.13-.8-.23-1.48-.32-2.05-4.06-28.24,6.27-59.74,16.16-60.27,3.3-.18,5.59,3.11,14.23,16.02.69,1.02,1.35,2.02,2,3,1.47-5.04,3.16-10.74,5.02-17.11,4.37-14.92,5.57-18.75,8.75-19.56,7.74-1.99,21.82,15.17,29.4,36.67,2.21-3.23,4.63-6.74,7.23-10.53,8.81-12.81,11.13-16.09,14.42-15.87,9.88.65,19.86,32.28,15.44,60.46-.29,1.85-.84,4.94-1.85,8.79,6.04-3.68,13.57-8.27,22.65-13.79,13.28-8.07,16.74-10.1,19.65-8.56,8.76,4.65,4.88,37.57-10.69,61.49-1.6,2.45-5.02,7.4-10.23,12.86,7.05-.99,15.88-2.23,26.58-3.73,15.4-2.15,19.38-2.64,21.44-.07,5.65,7.03-7.64,31.52-28.04,47.74,3.51-.21,7.3-.43,11.34-.67,15.52-.91,19.52-1.06,21.37,1.67,5.54,8.2-13.33,35.47-38.29,49.28Z"/>
      <path class="cls-3" d="m1571.17,810.06c-6.18,4.63-30.2,21.31-59.44,15.48-2.48-.49-9.51-1.88-16.1-4.67-3.93,6.35-14.35,21.72-24.66,20.06-4.98-.8-9.06-5.44-12.31-12.1-1.7,1.12-3.09,1.98-3.91,2.47-25.42,15.56-53.73,8.22-61.14,6-27.32-8.18-51.56-30.8-47.89-40.01,1.23-3.06,5.17-3.75,20.53-6.17,8.78-1.38,16.3-2.58,22.62-3.55-2.41-1.41-4.27-2.63-5.47-3.47-23.47-16.2-39.55-45.21-33.22-52.83,2.1-2.53,6.07-1.96,21.43.46,5.57.89,10.62,1.69,15.19,2.42-1.7-1.64-3-3.01-3.87-3.96-19.24-21.09-28.38-52.96-20.5-58.95,2.62-1.99,6.37-.55,20.77,5.27,9.08,3.66,16.71,6.75,22.98,9.29-.24-.77-.44-1.43-.6-1.98-7.91-27.41-2.02-60.04,7.7-61.92,3.24-.63,5.97,2.31,16.3,13.91.83.92,1.62,1.81,2.4,2.7.76-5.2,1.65-11.07,2.62-17.64,2.27-15.38,2.93-19.34,5.97-20.58,7.39-3.04,23.71,12.02,34.17,32.27,1.75-3.5,3.66-7.31,5.71-11.42,6.96-13.9,8.81-17.47,12.09-17.7,9.87-.71,24.11,29.23,23.63,57.75-.03,1.87-.15,5.01-.62,8.96,5.47-4.48,12.3-10.06,20.54-16.78,12.04-9.83,15.19-12.31,18.28-11.18,9.31,3.39,10.01,36.54-2.12,62.38-1.25,2.65-3.95,8.03-8.36,14.14,6.84-1.96,15.43-4.4,25.81-7.35,14.95-4.25,18.83-5.28,21.22-3.02,6.57,6.19-3.23,32.27-21.2,51.15,3.45-.69,7.17-1.43,11.14-2.22,15.25-3.04,19.19-3.74,21.4-1.29,6.62,7.36-8.31,36.97-31.13,54.09Z"/>
      <path class="cls-1" d="m1803.86,904c-16.23,21.49-50.89,22.7-77.4,2.68-14.83-11.19-23.97-26.65-26.32-41.87-22.2,5.45-48.98-.14-71.4-17.06-20.36-15.37-32.71-36.76-35.44-57.66-.72-.49-1.42-.99-2.12-1.52-24.91-18.81-29.86-54.25-11.06-79.16,17.61-23.32,49.8-29.15,74.28-14.37,15.96-19.63,43.43-25.44,67.63-15.93,19.07-15.56,46.97-16.73,67.5-1.23,20.06,15.14,26.74,41.42,17.94,63.72,3.21,1.72,6.35,3.73,9.37,6.01,28.13,21.24,35.81,58.48,17.15,83.19-7.5,9.94-18.12,16.34-29.96,19.05,10.52,18.12,11.19,39.1-.17,54.15Z"/>
      <path class="cls-1" d="m1923.17,736.94c-15.37-5.14-31.35-3.02-43.96,4.47-6.06-8.25-14.64-14.77-25.08-18.26-26.96-9.02-56.12,5.53-65.14,32.49-1.79,5.36-2.65,10.8-2.67,16.16,1.26.99,2.46,2.05,3.6,3.16-1.14.6-2.25,1.22-3.37,1.85-.16-1.66-.24-3.33-.24-5-4.34-3.45-9.29-6.2-14.78-8.03-19.76-6.61-41.12.3-55.73,15.96-5.85-4.28-12.51-7.77-19.85-10.23-25.67-8.59-52.38-2.09-68.74,14.53-6.31-5.28-13.97-9.63-22.64-12.53-25.41-8.5-51.28-1.86-63.03,14.74-25.55-6.69-51.26,4.76-58.62,26.76-2.75,8.21-2.57,16.79,0,24.83-21.93-2.21-42.06,8.2-48.19,26.51-6.15,18.38,3.8,38.89,22.81,50.3h471.54v-174.91c0-.13.01-.24.02-.36-1.91-.9-3.89-1.72-5.95-2.41Z"/>
      <path class="cls-1" d="m1454.12,928.06h59.01c1.09-3.7,1.61-7.56,1.43-11.54-.85-19.29-17.33-34.84-39.03-38.76,4.69-7.02,7.22-15.22,6.84-23.87-1.02-23.18-22.58-41.26-48.98-41.86-6.73-19.19-29.77-32.7-56.54-31.52-9.14.4-17.7,2.47-25.22,5.81-11.15-20.48-35.04-34.08-62.08-32.89-7.73.34-15.1,1.86-21.9,4.36-9.74-19.07-28.36-31.6-49.18-30.68-5.77.25-11.29,1.53-16.42,3.65-.46,1.61-.99,3.2-1.6,4.74-.9-.91-1.8-1.81-2.73-2.7,1.41-.75,2.85-1.44,4.33-2.04,1.46-5.16,2.13-10.62,1.88-16.27-1.25-28.39-25.27-50.41-53.68-49.16-11,.48-21.05,4.39-29.14,10.65-10.06-10.67-24.83-17.11-41.03-16.4-22.16.97-40.52,15.05-47.25,34.05-3.02-.57-6.18-.8-9.43-.66-14.11.62-26.05,8.17-31.75,18.71v216.56c.35-.07.73-.11,1.13-.11h460.46c.27-.04.56-.07.86-.07Z"/>
      <path class="cls-3" d="m1027.2,822.25c-6.76,3.73-32.85,16.94-61.01,7.14-2.39-.83-9.16-3.18-15.3-6.85-4.76,5.75-17.21,19.54-27.18,16.47-4.82-1.48-8.23-6.63-10.52-13.68-1.84.88-3.33,1.53-4.21,1.91-27.32,11.91-54.35.74-61.38-2.48-25.94-11.87-46.83-37.61-41.92-46.22,1.64-2.86,5.64-3,21.18-3.28,8.89-.16,16.5-.31,22.9-.4-2.19-1.72-3.87-3.2-4.94-4.19-21.02-19.28-32.94-50.23-25.62-56.9,2.43-2.22,6.29-1.11,21.16,3.41,5.4,1.65,10.29,3.13,14.72,4.49-1.46-1.86-2.55-3.39-3.28-4.45-16.15-23.54-20.81-56.36-12.18-61.22,2.87-1.61,6.38.33,19.85,8.08,8.49,4.88,15.63,8.99,21.48,12.37-.13-.8-.23-1.48-.32-2.05-4.06-28.24,6.27-59.74,16.16-60.27,3.3-.18,5.59,3.11,14.23,16.02.69,1.02,1.35,2.02,2,3,1.47-5.04,3.16-10.74,5.02-17.11,4.37-14.92,5.57-18.75,8.75-19.56,7.74-1.99,21.82,15.17,29.4,36.67,2.21-3.23,4.63-6.74,7.23-10.53,8.81-12.81,11.13-16.09,14.42-15.87,9.88.65,19.86,32.28,15.44,60.46-.29,1.85-.84,4.94-1.85,8.79,6.04-3.68,13.57-8.27,22.65-13.79,13.28-8.07,16.74-10.1,19.65-8.56,8.76,4.65,4.88,37.57-10.69,61.49-1.6,2.45-5.02,7.4-10.23,12.86,7.05-.99,15.88-2.23,26.58-3.73,15.4-2.15,19.38-2.64,21.44-.07,5.65,7.03-7.64,31.52-28.04,47.74,3.51-.21,7.3-.43,11.34-.67,15.52-.91,19.52-1.06,21.37,1.67,5.54,8.2-13.33,35.47-38.29,49.28Z"/>
      <path class="cls-3" d="m222.25,670.15c-6.76,3.73-32.85,16.94-61.01,7.14-2.39-.83-9.16-3.18-15.3-6.85-4.76,5.75-17.21,19.54-27.18,16.47-4.82-1.48-8.23-6.63-10.52-13.68-1.84.88-3.33,1.53-4.21,1.91-27.32,11.91-54.35.74-61.38-2.48-25.94-11.87-46.83-37.61-41.92-46.22,1.64-2.86,5.64-3,21.18-3.28,8.89-.16,16.5-.31,22.9-.4-2.19-1.72-3.87-3.2-4.94-4.19-21.02-19.28-32.94-50.23-25.62-56.9,2.43-2.22,6.29-1.11,21.16,3.41,5.4,1.65,10.29,3.13,14.72,4.49-1.46-1.86-2.55-3.39-3.28-4.45-16.15-23.54-20.81-56.36-12.18-61.22,2.87-1.61,6.38.33,19.85,8.08,8.49,4.88,15.63,8.99,21.48,12.37-.13-.8-.23-1.48-.32-2.05-4.06-28.24,6.27-59.74,16.16-60.27,3.3-.18,5.59,3.11,14.23,16.02.69,1.02,1.35,2.02,2,3,1.47-5.04,3.16-10.74,5.02-17.11,4.37-14.92,5.57-18.75,8.75-19.56,7.74-1.99,21.82,15.17,29.4,36.67,2.21-3.23,4.63-6.74,7.23-10.53,8.81-12.81,11.13-16.09,14.42-15.87,9.88.65,19.86,32.28,15.44,60.46-.29,1.85-.84,4.94-1.85,8.79,6.04-3.68,13.57-8.27,22.65-13.79,13.28-8.07,16.74-10.1,19.65-8.56,8.76,4.65,4.88,37.57-10.69,61.49-1.6,2.45-5.02,7.4-10.23,12.86,7.05-.99,15.88-2.23,26.58-3.73,15.4-2.15,19.38-2.64,21.44-.07,5.65,7.03-7.64,31.52-28.04,47.74,3.51-.21,7.3-.43,11.34-.67,15.52-.91,19.52-1.06,21.37,1.67,5.54,8.2-13.33,35.47-38.29,49.28Z"/>
      <path class="cls-1" d="m673.19,934.56l-57.55-13.05c-.25-3.85.1-7.73,1.15-11.57,5.09-18.63,24.61-30.15,46.63-29.16-3.02-7.89-3.67-16.44-1.39-24.79,6.12-22.38,31.15-35.24,57.03-29.99,10.81-17.23,36.27-25.3,62.11-18.24,8.83,2.41,16.71,6.32,23.31,11.25,15.4-17.51,41.71-25.48,67.82-18.34,7.47,2.04,14.32,5.16,20.39,9.1,13.71-16.45,34.65-24.54,54.75-19.05,5.58,1.52,10.68,3.99,15.2,7.19.09,1.67.26,3.34.51,4.98,1.08-.69,2.16-1.37,3.26-2.03-1.21-1.05-2.46-2.03-3.78-2.95-.28-5.35.28-10.83,1.77-16.28,7.49-27.41,35.8-43.57,63.22-36.07,10.62,2.9,19.56,8.93,26.06,16.83,12.17-8.18,28-11.19,43.64-6.92,21.39,5.85,36.19,23.64,38.55,43.66,3.07.11,6.2.59,9.34,1.44,13.63,3.73,23.6,13.73,26.82,25.27l-47.9,211.19c-.33-.15-.68-.27-1.07-.36l-449.05-101.85c-.26-.1-.53-.19-.82-.26Z"/>
      <path class="cls-1" d="m477.08,911.16h59.01c1.09-3.7,1.61-7.56,1.43-11.54-.85-19.29-17.33-34.84-39.03-38.76,4.69-7.02,7.22-15.22,6.84-23.87-1.02-23.18-22.58-41.26-48.98-41.86-6.73-19.19-29.77-32.7-56.54-31.52-9.14.4-17.7,2.47-25.22,5.81-11.15-20.48-35.04-34.08-62.08-32.89-7.73.34-15.1,1.86-21.9,4.36-9.74-19.07-28.36-31.6-49.18-30.68-5.77.25-11.29,1.53-16.42,3.65-.46,1.61-.99,3.2-1.6,4.74-.9-.91-1.8-1.81-2.73-2.7,1.41-.75,2.85-1.44,4.33-2.04,1.46-5.16,2.13-10.62,1.88-16.27-1.25-28.39-25.27-50.41-53.68-49.16-11,.48-21.05,4.39-29.14,10.65-10.06-10.67-24.83-17.11-41.03-16.4-22.16.97-40.52,15.05-47.25,34.05-3.02-.57-6.18-.8-9.43-.66-14.11.62-26.05,8.17-31.75,18.71v216.56c.35-.07.73-.11,1.13-.11h460.46c.27-.04.56-.07.86-.07Z"/>
      <ellipse class="cls-1" cx="221.42" cy="716.3" rx="8.85" ry="9.02"/>
      <circle class="cls-1" cx="961.25" cy="808.81" r="21.7"/>
      <ellipse class="cls-1" cx="1199.4" cy="720.48" rx="25.08" ry="23.23"/>
      <path class="cls-1" d="m-413.09,911.16h-59.01c-1.09-3.7-1.61-7.56-1.43-11.54.85-19.29,17.33-34.84,39.03-38.76-4.69-7.02-7.22-15.22-6.84-23.87,1.02-23.18,22.58-41.26,48.98-41.86,6.73-19.19,29.77-32.7,56.54-31.52,9.14.4,17.7,2.47,25.22,5.81,11.15-20.48,35.04-34.08,62.08-32.89,7.73.34,15.1,1.86,21.9,4.36,9.74-19.07,28.36-31.6,49.18-30.68,5.77.25,11.29,1.53,16.42,3.65.46,1.61.99,3.2,1.6,4.74.9-.91,1.8-1.81,2.73-2.7-1.41-.75-2.85-1.44-4.33-2.04-1.46-5.16-2.13-10.62-1.88-16.27,1.25-28.39,25.27-50.41,53.68-49.16,11,.48,21.05,4.39,29.14,10.65,10.06-10.67,24.83-17.11,41.03-16.4,22.16.97,40.52,15.05,47.25,34.05,3.02-.57,6.18-.8,9.43-.66,14.11.62,26.05,8.17,31.75,18.71v216.56c-.35-.07-.73-.11-1.13-.11h-460.46c-.27-.04-.56-.07-.86-.07Z"/>
      <path class="cls-1" d="m1898.16,736.94c15.37-5.14,31.35-3.02,43.96,4.47,6.06-8.25,14.64-14.77,25.08-18.26,26.96-9.02,56.12,5.53,65.14,32.49,1.79,5.36,2.65,10.8,2.67,16.16-1.26.99-2.46,2.05-3.6,3.16,1.14.6,2.25,1.22,3.37,1.85.16-1.66.24-3.33.24-5,4.34-3.45,9.29-6.2,14.78-8.03,19.76-6.61,41.12.3,55.73,15.96,5.85-4.28,12.51-7.77,19.85-10.23,25.67-8.59,52.38-2.09,68.74,14.53,6.31-5.28,13.97-9.63,22.64-12.53,25.41-8.5,51.28-1.86,63.03,14.74,25.55-6.69,51.26,4.76,58.62,26.76,2.75,8.21,2.57,16.79,0,24.83,21.93-2.21,42.06,8.2,48.19,26.51,6.15,18.38-3.8,38.89-22.81,50.3h-471.54v-174.91c0-.13-.01-.24-.02-.36,1.91-.9,3.89-1.72,5.95-2.41Z"/>
    </g>
  </g>
</svg>