<?xml version="1.0" encoding="UTF-8"?>
<svg id="Layer_1" data-name="Layer 1" xmlns="http://www.w3.org/2000/svg" xmlns:xlink="http://www.w3.org/1999/xlink" viewBox="0 0 431.55 596.69">
  <defs>
    <style>
      .cls-1 {
        stroke: #000;
        stroke-miterlimit: 10;
      }

      .cls-1, .cls-2 {
        fill: none;
      }

      .cls-3 {
        clip-path: url(#clippath-2);
      }

      .cls-2, .cls-4, .cls-5, .cls-6, .cls-7 {
        stroke-width: 0px;
      }

      .cls-8 {
        clip-path: url(#clippath-1);
      }

      .cls-9 {
        clip-path: url(#clippath-4);
      }

      .cls-4 {
        fill: #fff;
      }

      .cls-10 {
        clip-path: url(#clippath);
      }

      .cls-11 {
        clip-path: url(#clippath-3);
      }

      .cls-5 {
        fill: #292612;
      }

      .cls-6 {
        fill: #ad6126;
      }

      .cls-7 {
        fill: #d69e75;
      }
    </style>
    <clipPath id="clippath">
      <rect class="cls-2" width="431.55" height="596.69"/>
    </clipPath>
    <clipPath id="clippath-1">
      <rect class="cls-2" width="431.55" height="596.69"/>
    </clipPath>
    <clipPath id="clippath-2">
      <rect class="cls-2" width="431.55" height="596.69"/>
    </clipPath>
    <clipPath id="clippath-3">
      <rect class="cls-2" width="431.55" height="596.69"/>
    </clipPath>
    <clipPath id="clippath-4">
      <rect class="cls-2" width="431.55" height="596.69"/>
    </clipPath>
  </defs>
  <g class="cls-10">
    <path class="cls-6" d="m48.28,304.67c34.56,117.55,79.09,183.82,189.98,203.1,110.89,19.28,126.18-120.76,134.18-207.99,8-87.23-19.42-182.78-136.83-181.66-117.41,1.11-221.9,69-187.33,186.55"/>
    <path class="cls-7" d="m41.55,231.99c-12.77,3.43-33.62-15.76-39.63-36.09-9.31-31.46,17.63-63.16,28.31-75.72,17.11-20.13,35.13-29.89,62.28-44.58,30.26-16.38,47.46-25.69,72.89-30.43,28.65-5.34,56.84.92,113.23,13.45,30.36,6.74,46.08,12.32,60.15,25.48,4.96,4.63,19.4,18.52,21.94,39.63.71,5.93,2.18,18.16-5.66,28.31-1.69,2.19-6.44,8.33-13.52,9.69-13.66,2.62-22.15-15.21-40.26-27.38-17.82-11.97-35.69-12.24-67.94-12.74-14.05-.21-40.93-.38-72.89,11.32-31.59,11.56-51.89,28.76-67.23,41.75-13.42,11.37-20.13,17.05-24.77,24.77-4.04,6.71-7.82,15.71-17.69,25.48-4.26,4.21-6.39,6.32-9.2,7.08"/>
    <path class="cls-7" d="m127.52,7.3c9.4,3.05,16.5,18.65,18.51,27.27,1.34,5.75-7.62,10.45-7.69,17.08-.05,4.45,3.29,6.7,8.08,6.17,11.74-1.29,18.73-.86,30.42-4.06,4.77-1.3,12.71-2.95,9.1-7.61C172.47,28.76,159.99,1.53,137.86.07c-11.42-.76-17.32,4.96-10.34,7.23"/>
    <path class="cls-5" d="m197.69,367.43c4.05-.02,10.02,10.45,7.5,19.7-1.46,5.35-5.63,9.87-10.88,11.76-8.52,3.06-17.96-1.52-17.85-3.58.11-2.11,10.57-.03,11.54-.17,5.71-.84,7.72-2.67,9.83-4.33,2.96-2.32,3.65-8.43,1.94-11.89-1.79-3.64-5.94-3.51-6.28-6.31-.27-2.26,2.07-5.17,4.2-5.18"/>
    <path class="cls-5" d="m281.73,389.41c.06,3.33-8.16,8.42-14.66,6-4.43-1.65-6.33-6.06-6.67-7.38-.98-3.91,0-9.32,2.92-13.47,1.75-2.49,3.8-3.78,4.51-3.07.86.86-1.92,3.52-2.85,9.62-.38,2.51-.83,5.46,1.02,7.43,1.74,1.86,5.03,2.34,7.23,1.22,2.32-1.18,2.21-3.54,4.02-3.87,1.84-.33,4.45,1.66,4.48,3.51"/>
    <path class="cls-5" d="m217.87,393.74c6.12,3.7,11.17,6.75,17.69,6.37,7.69-.45,13.77-5.45,14.86-6.37,5.17-4.38,5.98-8.53,9.2-8.49,2.99.04,6.22,3.66,6.37,7.08.25,5.67-7.99,9.93-13.45,12.74-3.42,1.76-9.35,4.74-17.69,4.95-8.06.21-13.74-2.29-19.82-4.95-5.3-2.33-8.31-3.7-10.62-7.08-3.57-5.23-3.85-12.9-1.41-14.15,2.27-1.17,5.24,4.09,14.86,9.91"/>
    <path class="cls-5" d="m65.47,354.04c-3.27-.5-7.19,7.61-12.89,19.43-6.37,13.2-5.23,14.14-8.49,16.99-5.77,5.04-11.41,3.89-19.11,11.32-2.82,2.72-3.87,4.61-3.54,6.37.53,2.86,4.56,4.47,7.08,4.95,6.82,1.31,12.97-3.63,16.28-6.37,6.56-5.43,5.6-7.89,16.28-24.06,5.63-8.53,8.55-11.86,8.58-17.88.03-4.54-1.58-10.35-4.19-10.75"/>
    <path class="cls-5" d="m372.46,300.72c.91-.21,3.67-.54,14.92,10.54,4.14,4.08,4.1,4.45,5.19,4.72,5.27,1.3,9.12-6.55,21.7-15.1,5.41-3.67,11.74-7.88,15.1-5.66,2.09,1.38,2.57,4.94,1.89,7.55-1.03,3.96-4.68,5.55-10.85,8.96-15.73,8.7-16.33,11.82-24.53,13.21-4.24.72-8.55,1.45-12.27-.94-3.88-2.5-2.74-5.59-8.02-11.32-3.91-4.25-7.14-5.38-6.9-7.96.16-1.74,1.86-3.54,3.78-3.99"/>
    <path class="cls-5" d="m231.46,506.31c-3.37,2.67,0,9.62.7,19.62.76,10.83-2.07,18.81-6.61,31.61-7.27,20.51-14.94,25.3-11.79,31.61,3.68,7.4,17.56,7.51,22.65,7.55,5.7.04,17.1-.99,17.93-5.19.66-3.35-5.44-8.4-11.79-9.91-10.29-2.44-17.58,5.32-20.29,2.83-3.07-2.82,4.82-14.17,12.27-31.61,5.96-13.98,15.66-36.69,7.73-44.62-2.95-2.95-8.31-3.84-10.78-1.89"/>
    <path class="cls-5" d="m314.44,487.94c-4.02,18.04,6.1,28.34,10.66,49.31,5.67,26.04-3.36,40.37,4.72,44.82,5.98,3.3,15.74-1.9,25.48-7.08,5.16-2.74,9.68-5.21,9.44-8.02-.31-3.62-8.48-7.35-15.1-5.66-7.6,1.94-9.25,10.02-12.27,9.44-3.7-.72-3.59-13.34-5.19-37.74-.25-3.77-1.45-20.92-6.61-41.52-1.96-7.83-3.88-13.71-6.13-13.68-2.75.03-4.7,8.79-5,10.14"/>
  </g>
  <line class="cls-1" x1="325.94" y1="235.23" x2="342.76" y2="224.45"/>
  <g class="cls-8">
    <path class="cls-4" d="m144.09,357.44l14.05-.94c18.25-1.22,32.19-17.15,30.97-35.4l-3.9-58.37c-1.22-18.25-17.15-32.19-35.4-30.97l-14.05.94c-18.25,1.22-32.19,17.15-30.97,35.4l3.9,58.37c1.22,18.25,17.15,32.19,35.4,30.97"/>
  </g>
  <path class="cls-1" d="m329.53,244.05l18.44-4.74m-27.91-11.94l13.45-13.71"/>
  <g class="cls-3">
    <path class="cls-4" d="m289.7,343.68l14.05-.94c18.25-1.22,32.19-17.15,30.97-35.4l-3.9-58.37c-1.22-18.25-17.15-32.19-35.4-30.97l-14.05.94c-18.25,1.22-32.19,17.15-30.97,35.4l3.9,58.37c1.22,18.25,17.15,32.19,35.4,30.97"/>
    <path class="cls-7" d="m272.66,374.29c0,5.18,4.2,9.38,9.38,9.38s9.38-4.2,9.38-9.38-4.2-9.38-9.38-9.38-9.38,4.2-9.38,9.38"/>
  </g>
  <line class="cls-1" x1="106.47" y1="255.53" x2="88.35" y2="248.11"/>
  <path class="cls-1" d="m104.72,264.67l-18.82-1.41m25.04-16.61l-15.46-11.2"/>
  <g class="cls-11">
    <path class="cls-7" d="m170.48,381.76c0,5.18,4.2,9.38,9.38,9.38s9.38-4.2,9.38-9.38-4.2-9.38-9.38-9.38-9.38,4.2-9.38,9.38"/>
  </g>
  <g class="cls-9">
    <path class="cls-5" d="m295.27,321.44h0c13.39-.89,23.61-12.58,22.71-25.97l-2.17-32.52c-.89-13.39-12.58-23.61-25.97-22.71-13.39.89-23.61,12.58-22.71,25.97l2.17,32.52c.89,13.39,12.58,23.61,25.97,22.72"/>
    <path class="cls-5" d="m149.66,335.2h0c13.39-.89,23.61-12.58,22.71-25.97l-2.17-32.52c-.89-13.39-12.58-23.61-25.97-22.71-13.39.89-23.61,12.58-22.71,25.97l2.17,32.52c.89,13.39,12.58,23.61,25.97,22.71"/>
  </g>
</svg>