<?xml version="1.0" encoding="UTF-8"?>
<svg id="Layer_2" data-name="Layer 2" xmlns="http://www.w3.org/2000/svg" viewBox="0 0 205.14 345.96">
  <defs>
    <style>
      .cls-1 {
        fill: #ffcc56;
      }

      .cls-1, .cls-2, .cls-3, .cls-4 {
        stroke-width: 0px;
      }

      .cls-2 {
        fill: #ee4133;
      }

      .cls-3 {
        fill: #f68d3a;
      }

      .cls-4 {
        fill: #954d22;
      }
    </style>
  </defs>
  <ellipse class="cls-1" cx="98.51" cy="72.8" rx="47.87" ry="41.74"/>
  <path class="cls-2" d="m21.53,33.71C15.82,30.56-1.32,21.11.08,11.75.66,7.92,4.26,4.63,7.74,3.58c5.09-1.54,10.13,1.64,11.74,2.55,10.65,6.04,30.39,2.89,53.45-.51C84.34,3.94,91.83.12,106.29,0c6.24-.05,13.79.16,21.96,4.09,1.73.83,9.47,4.7,18.38,16.34,3.29,4.29,6.37,9.17,14.81,29.11,9.7,22.93,15.32,37.79,15.32,37.79,4.71,12.46,3.02,13.41,7.32,19.4,2.17,3.02,7.4,11.03,14.47,19.57,6.82,8.24,6.84,11.73,6.47,15.32-.48,4.57-1.56,7.25-6.3,8.51-6.21,1.65-12.93-2.03-29.62-17.36-15.66-14.39-23.11-23.46-30.13-30.64-21.77-22.26-43.98-34.75-53.79-40.17-17.52-9.68-28.09-15.53-43.74-20.26-4.13-1.25-11.22-3.2-19.91-8Z"/>
  <path class="cls-1" d="m76.41,105.09c-4.82,3.53-3.01,8.67-6.58,22.85-1.8,7.14-4.58,18.17-11.74,28.09-1.38,1.9-8.42,8.1-22.47,20.43-5.85,5.14-11.92,10.41-16.85,19.4-2.34,4.27-5.21,9.64-3.06,12.77,2.28,3.32,9.53,3.08,14.81,1.02,7.07-2.76,9.4-8.3,21.96-28.6,7.95-12.85,11.45-17.81,15.32-17.36,3.36.39,5.43,4.67,6.13,6.13,11.08,23.01-42.18,83.12-32.17,141.96,1.83,10.76,5.1,17.52,10.21,22.47,16.9,16.35,57.02,17.33,66.72-8.17,8.68-22.81,9.36-38.52,7.49-61.96-1.36-17.02-10.55-35.74-18.72-62.98-5.15-17.16-1.33-19,.17-29.79.26-1.85,1.86-2.13,3.7-1.98,7.24.56,9.88,14.87,19.79,33.13,4.1,7.57,17.2,25.75,28.09,24.34,4.14-.54,5.92-1.98,7.15-5.96,2.44-7.89-5.96-14.82-18.38-31.15-18.04-23.7-13.5-25.93-26.77-40.13-11.3-12.09-19.31-15.53-20.21-27.28-.43-5.56,1.43-8.69-1.05-12.65-4.22-6.74-16.95-9.39-23.51-4.59Z"/>
  <path class="cls-3" d="m98.99,87.5c0,7.93-6.43,14.36-14.36,14.36s-14.36-6.43-14.36-14.36"/>
  <path class="cls-4" d="m101.81,87.5c0,7.93-6.43,14.36-14.36,14.36s-14.36-6.43-14.36-14.36"/>
  <path class="cls-3" d="m109.41,325.92c-4.17,5.55-19.78,16.4-23.04,8.47-3.25-7.93,13.41-10.81,15.82-15.33,2.41-4.53,5.26-23.12,12.59-19.64,7.33,3.48-1.21,20.95-5.38,26.5Z"/>
  <path class="cls-3" d="m62.08,82.52c0,.24-.94.41-2.11.37s-2.1-.27-2.1-.51.94-.41,2.1-.37,2.11.27,2.11.51Z"/>
  <path class="cls-3" d="m66.68,80.17c0,.32-1.32.54-2.94.49s-2.93-.36-2.93-.68,1.31-.54,2.93-.49,2.94.36,2.94.68Z"/>
  <path class="cls-3" d="m70,82.64c0,.27-.94.46-2.11.42s-2.1-.29-2.1-.56.94-.46,2.1-.42,2.11.29,2.11.56Z"/>
  <path class="cls-3" d="m107.02,79.57c0,.28-1.35.46-3,.4s-3-.32-3-.6,1.34-.46,3-.4,3,.32,3,.6Z"/>
  <path class="cls-3" d="m102.57,82.01c0,.25-.91.41-2.03.38s-2.03-.27-2.03-.51.91-.41,2.03-.38,2.03.27,2.03.51Z"/>
  <path class="cls-3" d="m112.12,82.39c0,.37-1.52.63-3.39.56s-3.38-.41-3.38-.79,1.51-.63,3.38-.56,3.39.41,3.39.79Z"/>
</svg>