<?xml version="1.0" encoding="UTF-8"?><svg id="Layer_1" xmlns="http://www.w3.org/2000/svg" width="1121.6" height="500.13" viewBox="0 0 1121.6 500.13"><defs><style>.cls-1{fill:#954d22;}.cls-1,.cls-2,.cls-3,.cls-4,.cls-5{stroke-width:0px;}.cls-2{fill:#fff;}.cls-3{fill:#ffcc56;}.cls-4{fill:#ee4133;}.cls-5{fill:#f68d3a;}</style></defs><path id="Polygon_1" class="cls-2" d="m798.61,234.97l-65.49,43.13-12.58-50.44,78.07,7.31Z"/><ellipse id="Ellipse_1" class="cls-2" cx="367.85" cy="276.16" rx="367.85" ry="176.03"/><ellipse id="Ellipse_24" class="cls-3" cx="967.46" cy="105.24" rx="69.2" ry="60.34"/><path id="Path_56" class="cls-4" d="m856.18,48.74c-8.25-4.55-33.03-18.21-31.01-31.74.84-5.54,6.04-10.29,11.07-11.81,7.36-2.23,14.64,2.37,16.97,3.69,15.4,8.73,43.93,4.18,77.26-.74,16.49-2.43,27.32-7.95,48.22-8.13,9.02-.07,19.93.23,31.74,5.91,2.5,1.2,13.69,6.79,26.57,23.62,4.76,6.2,9.21,13.26,21.41,42.08,14.02,33.15,22.15,54.63,22.15,54.63,6.81,18.01,4.36,19.38,10.58,28.04,3.14,4.37,10.7,15.94,20.92,28.29,9.86,11.91,9.89,16.96,9.35,22.15-.69,6.61-2.26,10.48-9.11,12.3-8.98,2.38-18.69-2.93-42.82-25.09-22.64-20.8-33.41-33.91-43.55-44.29-31.47-32.17-63.57-50.23-77.75-58.06-25.33-13.99-40.6-22.45-63.23-29.29-10.01-2.73-19.67-6.61-28.78-11.56h0Z"/><path id="Path_57" class="cls-3" d="m935.51,151.92c-6.97,5.1-4.35,12.53-9.51,33.03-2.6,10.32-6.62,26.26-16.97,40.6-2,2.75-12.17,11.71-32.48,29.53-8.46,7.43-17.23,15.05-24.36,28.04-3.38,6.17-7.53,13.93-4.42,18.46,3.3,4.8,13.78,4.45,21.41,1.47,10.22-3.99,13.59-12,31.74-41.34,11.49-18.57,16.55-25.74,22.15-25.09,4.86.56,7.85,6.75,8.86,8.86,16.02,33.27-60.97,120.15-46.51,205.21,2.65,15.55,7.37,25.33,14.76,32.48,24.43,23.63,82.42,25.05,96.44-11.81,12.55-32.97,13.53-55.68,10.83-89.57-1.97-24.6-15.25-51.66-27.06-91.04-7.44-24.8-1.92-27.46.25-43.06.38-2.67,2.69-3.08,5.35-2.86,10.47.81,14.28,21.49,28.61,47.89,5.93,10.94,24.86,37.22,40.6,35.18,5.98-.78,8.56-2.86,10.34-8.61,3.53-11.4-8.62-21.42-26.57-45.03-26.08-34.26-19.51-37.48-38.7-58.01-16.33-17.48-27.91-22.45-29.21-39.43-.62-8.04,2.07-12.56-1.52-18.29-6.1-9.74-24.5-13.57-33.98-6.64h-.03Z"/><path id="Path_58" class="cls-5" d="m968.15,126.49c.08,11.46-9.15,20.82-20.61,20.9-11.46.08-20.82-9.15-20.9-20.61,0-.1,0-.19,0-.29"/><path id="Path_59" class="cls-1" d="m972.23,126.49c-.08,11.46-9.44,20.69-20.9,20.61-11.35-.08-20.53-9.26-20.61-20.61"/><path id="Path_60" class="cls-5" d="m983.21,471.13c-6.03,8.02-28.59,23.71-33.3,12.24s19.38-15.63,22.87-22.16,7.6-33.42,18.2-28.39c10.6,5.03-1.75,30.28-7.78,38.31h0Z"/><path id="Path_61" class="cls-5" d="m914.8,119.29c0,.35-1.36.59-3.05.54s-3.04-.39-3.04-.74,1.36-.59,3.04-.54,3.05.39,3.05.74Z"/><path id="Path_62" class="cls-5" d="m921.45,115.9c0,.46-1.91.78-4.25.71s-4.24-.52-4.24-.98,1.89-.78,4.24-.71c2.34.07,4.25.52,4.25.98Z"/><path id="Path_63" class="cls-5" d="m926.25,119.47c0,.39-1.36.67-3.05.61s-3.04-.42-3.04-.81,1.36-.67,3.04-.61,3.05.42,3.05.81Z"/><path id="Path_64" class="cls-5" d="m979.76,115.03c0,.4-1.95.67-4.34.58s-4.34-.46-4.34-.87,1.94-.67,4.34-.58,4.34.46,4.34.87Z"/><path id="Path_65" class="cls-5" d="m973.33,118.56c0,.36-1.32.59-2.93.55s-2.93-.39-2.93-.74,1.32-.59,2.93-.55,2.93.39,2.93.74Z"/><path id="Path_66" class="cls-5" d="m987.13,119.11c0,.54-2.2.91-4.9.81s-4.89-.59-4.89-1.14,2.18-.91,4.89-.81,4.9.59,4.9,1.14Z"/></svg>