<?xml version="1.0" encoding="UTF-8"?><svg id="Layer_1" xmlns="http://www.w3.org/2000/svg" width="1490.74" height="1157.4" xmlns:xlink="http://www.w3.org/1999/xlink" viewBox="0 0 1490.74 1157.4"><defs><style>.cls-1{clip-path:url(#clippath);}.cls-2,.cls-3{fill:none;}.cls-2,.cls-4,.cls-5,.cls-6,.cls-7,.cls-8,.cls-9,.cls-10,.cls-11,.cls-12{stroke-width:0px;}.cls-13{clip-path:url(#clippath-1);}.cls-14{clip-path:url(#clippath-4);}.cls-15{clip-path:url(#clippath-3);}.cls-16{clip-path:url(#clippath-2);}.cls-3{stroke:#000;stroke-miterlimit:10;}.cls-17{isolation:isolate;}.cls-4{fill:#292612;}.cls-5{fill:#954d22;}.cls-6{fill:#38883d;}.cls-7{fill:#d69e75;}.cls-8{fill:#ad6126;}.cls-9{fill:#fff;}.cls-10{fill:#ffcc56;}.cls-11{fill:#ee4133;}.cls-12{fill:#f68d3a;}</style><clipPath id="clippath"><rect class="cls-2" y="544.63" width="443.18" height="612.77"/></clipPath><clipPath id="clippath-1"><rect class="cls-2" y="544.63" width="443.18" height="612.77"/></clipPath><clipPath id="clippath-2"><rect class="cls-2" y="544.63" width="443.18" height="612.77"/></clipPath><clipPath id="clippath-3"><rect class="cls-2" y="544.63" width="443.18" height="612.77"/></clipPath><clipPath id="clippath-4"><rect class="cls-2" y="544.63" width="443.18" height="612.77"/></clipPath></defs><g class="cls-1"><path class="cls-8" d="m49.59,857.51c35.5,120.72,81.22,188.77,195.1,208.57s129.58-124.01,137.8-213.59c8.22-89.58-19.94-187.7-140.51-186.56-120.57,1.14-227.88,70.86-192.38,191.58"/><path class="cls-7" d="m42.67,782.87c-13.11,3.52-34.52-16.19-40.7-37.07-9.56-32.3,18.11-64.86,29.07-77.76,17.57-20.67,36.08-30.69,63.96-45.79,31.08-16.82,48.74-26.38,74.86-31.25,29.42-5.48,58.37.95,116.28,13.81,31.18,6.92,47.32,12.65,61.77,26.16,5.09,4.75,19.93,19.02,22.53,40.7.73,6.09,2.24,18.65-5.81,29.07-1.74,2.25-6.61,8.56-13.89,9.95-14.03,2.69-22.75-15.62-41.35-28.12-18.3-12.29-36.66-12.57-69.77-13.08-14.43-.22-42.03-.39-74.86,11.63-32.44,11.87-53.29,29.53-69.04,42.88-13.78,11.67-20.67,17.51-25.44,25.44-4.14,6.89-8.04,16.14-18.17,26.16-4.37,4.33-6.56,6.49-9.45,7.27"/><path class="cls-7" d="m130.96,552.12c9.65,3.13,16.95,19.15,19.01,28.01,1.37,5.9-7.83,10.73-7.9,17.54-.05,4.56,3.38,6.88,8.3,6.34,12.06-1.33,19.23-.89,31.24-4.17,4.9-1.34,13.05-3.03,9.34-7.81-13.83-17.86-26.66-45.83-49.38-47.33-11.73-.78-17.79,5.1-10.62,7.42"/><path class="cls-4" d="m203.01,921.96c4.16-.02,10.29,10.73,7.7,20.23-1.5,5.49-5.78,10.14-11.17,12.08-8.75,3.15-18.44-1.56-18.33-3.67.11-2.16,10.85-.03,11.85-.17,5.87-.86,7.93-2.74,10.1-4.45,3.04-2.39,3.74-8.66,1.99-12.21-1.84-3.74-6.1-3.61-6.45-6.48-.28-2.32,2.13-5.31,4.32-5.32"/><path class="cls-4" d="m289.32,944.54c.06,3.41-8.38,8.65-15.05,6.17-4.55-1.7-6.51-6.22-6.85-7.58-1-4.02,0-9.58,3-13.83,1.8-2.56,3.91-3.88,4.63-3.15.88.89-1.97,3.61-2.93,9.88-.39,2.58-.86,5.61,1.05,7.63,1.79,1.9,5.17,2.4,7.42,1.25,2.38-1.21,2.27-3.64,4.13-3.97,1.89-.34,4.56,1.71,4.6,3.61"/><path class="cls-4" d="m223.74,948.98c6.28,3.8,11.47,6.93,18.17,6.54,7.9-.46,14.14-5.59,15.26-6.54,5.31-4.5,6.14-8.76,9.45-8.72,3.07.04,6.38,3.76,6.54,7.27.26,5.83-8.21,10.19-13.81,13.08-3.51,1.81-9.6,4.87-18.17,5.09-8.28.21-14.11-2.35-20.35-5.09-5.44-2.39-8.53-3.8-10.9-7.27-3.66-5.37-3.95-13.25-1.45-14.54,2.33-1.2,5.38,4.2,15.26,10.17"/><path class="cls-4" d="m67.24,908.21c-3.36-.52-7.38,7.82-13.24,19.96-6.54,13.55-5.37,14.52-8.72,17.44-5.93,5.17-11.72,4-19.62,11.63-2.89,2.79-3.97,4.74-3.63,6.54.55,2.93,4.68,4.59,7.27,5.09,7,1.35,13.32-3.73,16.72-6.54,6.74-5.58,5.75-8.1,16.72-24.71,5.78-8.76,8.78-12.18,8.82-18.36.03-4.67-1.62-10.63-4.3-11.04"/><path class="cls-4" d="m382.5,853.45c.94-.22,3.77-.56,15.32,10.82,4.26,4.19,4.21,4.57,5.33,4.85,5.41,1.33,9.37-6.73,22.29-15.5,5.56-3.77,12.05-8.09,15.5-5.81,2.15,1.42,2.64,5.07,1.94,7.75-1.06,4.07-4.8,5.7-11.14,9.21-16.15,8.94-16.77,12.14-25.2,13.57-4.36.74-8.78,1.49-12.6-.97-3.98-2.57-2.81-5.74-8.24-11.63-4.02-4.36-7.34-5.53-7.09-8.18.17-1.79,1.91-3.64,3.88-4.1"/><path class="cls-4" d="m237.7,1064.58c-3.46,2.75,0,9.87.71,20.15.78,11.12-2.12,19.31-6.78,32.46-7.46,21.07-15.34,25.98-12.11,32.46,3.78,7.6,18.04,7.71,23.26,7.75,5.85.05,17.56-1.01,18.41-5.33.67-3.44-5.59-8.63-12.11-10.17-10.57-2.5-18.06,5.46-20.83,2.91-3.15-2.9,4.95-14.55,12.6-32.46,6.13-14.35,16.08-37.67,7.94-45.82-3.03-3.03-8.54-3.95-11.07-1.94"/><path class="cls-4" d="m322.91,1045.71c-4.13,18.52,6.27,29.1,10.95,50.63,5.82,26.74-3.45,41.46,4.85,46.03,6.14,3.38,16.17-1.95,26.16-7.27,5.3-2.82,9.94-5.35,9.69-8.24-.32-3.72-8.71-7.54-15.5-5.81-7.81,1.99-9.5,10.29-12.6,9.69-3.8-.74-3.68-13.7-5.33-38.76-.25-3.87-1.49-21.48-6.78-42.64-2.01-8.04-3.98-14.08-6.3-14.05-2.82.03-4.83,9.02-5.14,10.41"/></g><line class="cls-3" x1="334.72" y1="786.2" x2="351.99" y2="775.13"/><g class="cls-13"><path class="cls-9" d="m147.98,911.7l14.43-.96c18.74-1.25,33.06-17.61,31.8-36.36l-4.01-59.94c-1.25-18.75-17.61-33.06-36.36-31.81l-14.43.96c-18.74,1.25-33.06,17.61-31.8,36.36l4.01,59.94c1.25,18.74,17.61,33.06,36.36,31.8"/></g><path class="cls-3" d="m338.41,795.25l18.94-4.87m-28.67-12.26l13.81-14.08"/><g class="cls-16"><path class="cls-9" d="m297.51,897.57l14.43-.96c18.74-1.25,33.06-17.61,31.8-36.36l-4.01-59.94c-1.25-18.74-17.61-33.06-36.36-31.8l-14.43.96c-18.74,1.25-33.06,17.61-31.8,36.36l4.01,59.94c1.25,18.74,17.61,33.06,36.36,31.8"/><path class="cls-7" d="m280.01,929.01c0,5.32,4.31,9.63,9.63,9.63s9.63-4.31,9.63-9.63-4.31-9.63-9.63-9.63-9.63,4.31-9.63,9.63"/></g><line class="cls-3" x1="109.34" y1="807.04" x2="90.73" y2="799.43"/><path class="cls-3" d="m107.54,816.43l-19.33-1.45m25.72-17.06l-15.87-11.5"/><g class="cls-15"><path class="cls-7" d="m175.07,936.67c0,5.32,4.31,9.63,9.63,9.63s9.63-4.31,9.63-9.63-4.31-9.63-9.63-9.63-9.63,4.31-9.63,9.63"/></g><g class="cls-14"><path class="cls-4" d="m303.22,874.73h0c13.75-.92,24.25-12.92,23.33-26.67l-2.23-33.4c-.92-13.75-12.92-24.25-26.67-23.33s-24.25,12.92-23.33,26.67l2.23,33.4c.92,13.75,12.92,24.25,26.67,23.33"/><path class="cls-4" d="m153.69,888.86h0c13.75-.92,24.25-12.92,23.33-26.67l-2.23-33.4c-.92-13.75-12.92-24.25-26.67-23.33s-24.25,12.92-23.33,26.67l2.23,33.4c.92,13.75,12.92,24.25,26.67,23.33"/></g><ellipse class="cls-10" cx="1228.17" cy="484.81" rx="117.87" ry="102.78"/><path class="cls-11" d="m1038.64,388.57c-14.06-7.75-56.27-31.03-52.81-54.06,1.42-9.43,10.29-17.53,18.86-20.12,12.52-3.78,24.94,4.03,28.92,6.29,26.22,14.87,74.84,7.13,131.6-1.26,28.08-4.15,46.53-13.54,82.14-13.83,15.37-.12,33.94.4,54.06,10.06,4.27,2.05,23.31,11.56,45.26,40.23,8.09,10.56,15.7,22.58,36.46,71.67,23.89,56.46,37.72,93.04,37.72,93.04,11.6,30.67,7.43,33.01,18.02,47.78,5.33,7.44,18.22,27.17,35.62,48.2,16.79,20.29,16.85,28.87,15.93,37.72-1.17,11.26-3.84,17.85-15.51,20.95-15.29,4.07-31.83-4.99-72.92-42.75-38.56-35.43-56.9-57.77-74.18-75.44-53.6-54.81-108.28-85.55-132.43-98.91-43.14-23.85-69.16-38.23-107.71-49.87-10.16-3.07-27.62-7.89-49.03-19.7h0Z"/><path class="cls-10" d="m1173.77,564.31c-11.87,8.69-7.41,21.34-16.21,56.27-4.43,17.58-11.27,44.75-28.92,69.15-3.39,4.68-20.74,19.95-55.32,50.29-14.41,12.65-29.35,25.63-41.49,47.78-5.76,10.51-12.82,23.74-7.54,31.43,5.61,8.19,23.46,7.58,36.46,2.51,17.41-6.79,23.15-20.42,54.06-70.41,19.57-31.64,28.2-43.84,37.72-42.75,8.27.95,13.36,11.51,15.09,15.09,27.29,56.65-103.85,204.65-79.21,349.53,4.5,26.48,12.56,43.14,25.15,55.32,41.6,40.26,140.39,42.67,164.29-20.12,21.37-56.16,23.06-94.84,18.44-152.55-3.35-41.91-25.98-88.01-46.1-155.07-12.67-42.25-3.28-46.79.42-73.34.63-4.55,4.58-5.24,9.11-4.89,17.83,1.39,24.34,36.61,48.72,81.58,10.11,18.64,42.36,63.4,69.15,59.93,10.19-1.32,14.56-4.87,17.6-14.67,6.02-19.42-14.67-36.5-45.26-76.69-44.41-58.35-33.23-63.84-65.91-98.8-27.82-29.76-47.54-38.25-49.76-67.16-1.05-13.68,3.51-21.4-2.59-31.15-10.39-16.61-41.74-23.12-57.9-11.29h0Z"/><path class="cls-12" d="m1229.35,521.02c0,19.53-15.84,35.37-35.37,35.37s-35.37-15.84-35.37-35.37"/><path class="cls-5" d="m1236.3,521.02c0,19.53-15.84,35.37-35.37,35.37s-35.37-15.84-35.37-35.37"/><path class="cls-12" d="m1255.02,1108.05c-10.26,13.65-48.71,40.38-56.72,20.86s33.02-26.61,38.95-37.75c5.94-11.14,12.94-56.93,31-48.35,18.06,8.57-2.97,51.59-13.24,65.24h.01Z"/><path class="cls-12" d="m1138.49,508.76c0,.6-2.33,1-5.19.91s-5.18-.66-5.18-1.26,2.32-1,5.18-.91,5.19.66,5.19,1.26Z"/><path class="cls-12" d="m1149.8,502.95c0,.8-3.24,1.34-7.24,1.2-3.99-.13-7.22-.88-7.22-1.68s3.23-1.33,7.22-1.2c4,.13,7.24.88,7.24,1.68Z"/><path class="cls-12" d="m1157.97,509.05c0,.67-2.33,1.13-5.19,1.04-2.86-.1-5.18-.72-5.18-1.39s2.32-1.13,5.18-1.04c2.87.1,5.19.72,5.19,1.39Z"/><path class="cls-12" d="m1249.13,501.49c0,.68-3.31,1.13-7.4,1-4.08-.13-7.38-.79-7.38-1.47s3.3-1.12,7.38-1,7.4.79,7.4,1.47Z"/><path class="cls-12" d="m1238.18,507.49c0,.6-2.24,1.02-5.01.93s-5-.65-5-1.26,2.24-1.02,5-.93,5.01.65,5.01,1.26Z"/><path class="cls-12" d="m1261.7,508.44c0,.92-3.74,1.54-8.34,1.39s-8.32-1.02-8.32-1.94,3.72-1.54,8.32-1.39,8.34,1.02,8.34,1.94Z"/><ellipse class="cls-9" cx="673.54" cy="184.92" rx="363.61" ry="184.92"/><polygon class="cls-9" points="345.27 441.03 505.26 340.89 403.67 261.55 345.27 441.03"/><polygon class="cls-9" points="981.23 450.25 836.71 328.84 948.35 264.39 981.23 450.25"/><g id="VELKOMMEN_TIL_SKOVEN"><g class="cls-17"><g class="cls-17"><path class="cls-6" d="m403.75,137.57c-.81-3.96,5.26-5.66,6.07-1.7,1.94,9.22,3.56,18.52,5.5,27.66,1.54,7.04,3.15,14.23,5.5,21.03.89-1.46,1.62-2.99,2.34-4.53,2.1-4.53,3.88-9.06,5.42-13.75,3.23-9.38,6.06-19.33,6.31-29.11.08-4.04,6.39-4.04,6.31,0-.24,10.59-3.23,21.27-6.63,31.22-1.78,5.18-3.8,10.27-6.15,15.12-1.7,3.56-3.56,7.04-5.98,10.11-1.21,1.54-4.21,1.13-4.93-.57-7.68-17.55-9.79-36.96-13.75-55.48Z"/><path class="cls-6" d="m443.7,143.24c-.4-1.54.49-3.64,2.18-3.88,10.27-1.54,20.62-1.38,30.89-1.54,4.04-.08,4.04,6.23,0,6.31-8.25.08-16.66-.08-24.91.73.24,4.21.57,8.41.89,12.62,7.92-.4,15.93-1.38,23.94-.97,4.04.24,4.04,6.47,0,6.31-7.84-.41-15.61.48-23.45.89.65,7.6,1.21,15.12,1.46,22.72,7.36-1.78,15.12-3.4,22.64-2.02,1.7.24,2.67,2.26,2.18,3.8-.49,1.78-2.18,2.51-3.88,2.26-3.32-.65-6.96-.24-10.27.24-3.88.57-7.68,1.46-11.48,2.34-1.05.24-1.86.08-2.51-.4-1.46-.08-2.91-1.13-2.91-2.99-.16-8.9-.89-17.71-1.54-26.53-1.21-1.05-1.38-3.07-.4-4.37-.32-4.53-.65-8.98-.89-13.51-.89-.32-1.62-.97-1.94-2.02Z"/><path class="cls-6" d="m489.47,187.72c.89-3.48.16-7.2-.24-10.76-.49-4.37-.24-8.65.4-13.02.57-4.45,1.46-8.73,1.94-13.18.49-4.69.89-9.38,1.05-14.15.16-4.04,6.47-4.04,6.31,0-.16,4.93-.65,9.87-1.13,14.8-.49,4.61-1.38,9.06-2.02,13.59-.65,4.45-.65,8.73-.16,13.1.4,2.99.73,6.15.4,9.14,7.84.24,15.77.97,23.61,1.21,4.04.16,4.04,6.47,0,6.31-9.38-.32-18.84-1.29-28.22-1.29-3.32,0-3.96-4.12-1.94-5.74Z"/><path class="cls-6" d="m522.79,139.76c-.24-1.78.32-3.4,2.18-3.88,1.46-.4,3.64.49,3.88,2.18,1.13,8.49,2.18,16.98,2.67,25.47.4-.08.81-.16,1.29-.08,4.37-1.62,8.73-3.72,12.29-6.71,2.59-2.18,4.53-4.61,6.07-7.68,1.54-3.07,2.99-6.15,5.34-8.65,2.75-2.99,7.2,1.46,4.45,4.45-2.43,2.59-3.56,6.07-5.34,9.14s-4.04,5.66-6.79,7.84c-2.83,2.18-5.9,4.04-9.14,5.5,2.18,1.38,4.29,2.75,5.9,4.85,1.94,2.51,3.48,5.18,5.58,7.52,1.94,2.1,4.12,4.04,6.23,5.98,2.99,2.83-1.54,7.28-4.45,4.53-2.1-2.02-4.29-3.96-6.23-6.07-2.02-2.34-3.72-4.85-5.42-7.36-2.26-3.07-5.82-4.61-9.06-6.55-.16.08-.32.08-.49.16,0,2.59,0,5.09-.08,7.68-.08,4.37-.32,8.73.4,13.02.24,1.7-.49,3.4-2.26,3.88-1.46.4-3.56-.49-3.8-2.18-1.29-7.6-.57-15.37-.65-23.05-.49-.97-.49-2.18,0-3.07,0-.24,0-.49-.08-.73-.32-8.73-1.38-17.55-2.51-26.2Z"/><path class="cls-6" d="m567.34,182.3c-2.91-4.53-5.82-10.03-5.5-15.61.4-5.18,1.21-10.51,2.51-15.61.97-3.88,2.26-9.71,6.39-11.48,6.39-2.75,12.78,2.1,17.55,5.9,2.26,1.86,4.37,3.8,6.63,5.66,2.83,2.26,5.74,4.61,7.6,7.84,4.12,7.12.81,14.56-3.48,20.78-3.88,5.58-9.95,13.1-17.63,12.29-.97-.16-1.86-.57-2.51-1.21-1.94-.4-3.88-.73-5.58-1.94-2.51-1.7-4.37-4.12-5.98-6.63Zm2.34-8.81c1.46,3.15,3.15,6.39,5.58,8.9,1.05,1.13,2.1,1.86,3.64,2.1,1.78.32,3.48.49,5.18,1.05.57-.16,1.21-.49,1.86-.89,1.7-1.13,3.24-2.59,4.61-4.12,2.51-2.91,5.26-6.47,6.71-10.19,1.46-3.72,1.29-6.87-1.46-9.87-2.51-2.83-5.58-5.09-8.49-7.6-2.34-2.02-4.69-3.96-7.28-5.66-1.38-.81-2.59-1.46-3.72-1.86-.32-.08-.65-.16-.97-.24-.08,0-.16,0-.32-.08-.24,0-.57,0-1.05.08-.08,0-.16.08-.49.24q-.08,0-.32.16c-.08.08-.16.16-.32.49-.81,1.21-.81,1.46-1.21,2.59-1.05,3.07-1.78,6.15-2.35,9.3-.49,2.91-.89,5.34-1.05,8.33-.24,2.67.24,4.61,1.46,7.28Z"/><path class="cls-6" d="m612.06,191.19c0-16.74.16-33.56,1.78-50.22.4-3.56,5.01-4.21,6.23-.81,4.29,11.89,6.87,24.34,11.32,36.15,5.42-13.67,10.19-27.58,12.86-42.13.57-2.99,5.5-2.99,6.07,0,.81,4.69.24,9.3.24,14.07s.81,9.79,1.21,14.72c.73,9.87,1.21,19.81,1.46,29.68.08,4.12-6.15,4.12-6.31,0-.24-9.87-.73-19.81-1.46-29.68-.16-1.86-.4-3.72-.57-5.58-2.99,9.54-6.63,18.84-10.43,28.06-.57,1.29-1.46,2.26-2.99,2.26-1.05,0-2.26-.57-2.75-1.54-4.21-9.22-6.87-18.92-9.71-28.63-.57,11.24-.65,22.48-.65,33.64,0,4.04-6.31,4.04-6.31,0Z"/><path class="cls-6" d="m664.95,191.19c0-16.74.16-33.56,1.78-50.22.4-3.56,5.01-4.21,6.23-.81,4.29,11.89,6.87,24.34,11.32,36.15,5.42-13.67,10.19-27.58,12.86-42.13.57-2.99,5.5-2.99,6.07,0,.81,4.69.24,9.3.24,14.07s.81,9.79,1.21,14.72c.73,9.87,1.21,19.81,1.46,29.68.08,4.12-6.15,4.12-6.31,0-.24-9.87-.73-19.81-1.46-29.68-.16-1.86-.4-3.72-.57-5.58-2.99,9.54-6.63,18.84-10.43,28.06-.57,1.29-1.46,2.26-2.99,2.26-1.05,0-2.26-.57-2.75-1.54-4.21-9.22-6.87-18.92-9.71-28.63-.57,11.24-.65,22.48-.65,33.64,0,4.04-6.31,4.04-6.31,0Z"/><path class="cls-6" d="m714.69,143.24c-.4-1.54.49-3.64,2.18-3.88,10.27-1.54,20.62-1.38,30.89-1.54,4.04-.08,4.04,6.23,0,6.31-8.25.08-16.66-.08-24.91.73.24,4.21.57,8.41.89,12.62,7.93-.4,15.93-1.38,23.94-.97,4.04.24,4.04,6.47,0,6.31-7.84-.41-15.61.48-23.45.89.65,7.6,1.21,15.12,1.46,22.72,7.36-1.78,15.12-3.4,22.64-2.02,1.7.24,2.67,2.26,2.18,3.8-.49,1.78-2.18,2.51-3.88,2.26-3.32-.65-6.96-.24-10.27.24-3.88.57-7.68,1.46-11.48,2.34-1.05.24-1.86.08-2.51-.4-1.46-.08-2.91-1.13-2.91-2.99-.16-8.9-.89-17.71-1.54-26.53-1.21-1.05-1.38-3.07-.4-4.37-.32-4.53-.65-8.98-.89-13.51-.89-.32-1.62-.97-1.94-2.02Z"/><path class="cls-6" d="m758.6,145.9c-2.43-2.59.65-6.23,3.32-5.26,1.7-.16,3.56.81,3.56,3.07v.32c5.26,5.82,10.19,12.13,14.07,19,1.78,3.15,3.32,6.47,4.69,9.87,0-4.29.32-8.57.89-12.86,1.13-9.06,2.59-18.12,2.59-27.25.08-4.04,6.31-4.04,6.31,0,0,9.38-1.54,18.6-2.67,27.9-.57,4.69-.89,9.3-.81,13.99.08,4.45.32,8.9.08,13.34-.08,3.15-4.12,4.21-5.82,1.62-2.43-3.72-3.88-7.76-5.42-11.89-1.46-3.8-2.99-7.52-5.01-11.08-2.59-4.61-5.66-8.9-8.98-13.02,0,4.21,0,8.49.16,12.7.24,7.52,1.21,14.96,2.18,22.4.24,1.7-1.62,3.15-3.15,3.15-1.86,0-2.91-1.46-3.15-3.15-.97-7.44-1.94-14.88-2.18-22.4-.24-6.63-.08-13.26-.08-19.81-.16-.24-.4-.4-.57-.65Z"/><path class="cls-6" d="m822.32,140.89c0-1.86,1.46-3.07,3.15-3.15,5.18-.4,10.43-.4,15.61-.16.73-.24,1.62-.16,2.34.16,4.93.4,9.95,1.05,14.8,1.94,1.7.24,2.67,2.35,2.26,3.88-.49,1.7-2.18,2.43-3.88,2.18-3.96-.73-7.93-1.21-11.89-1.62-1.46,7.36-1.7,14.8-.97,22.32.73,7.76,2.34,15.45,3.8,23.05.32,1.7-.49,3.4-2.26,3.88-1.54.49-3.56-.49-3.8-2.18-1.62-8.41-3.4-16.82-4.12-25.31-.57-7.44-.32-14.8,1.05-22.16-4.37-.16-8.65-.08-12.94.24-1.7.16-3.15-1.54-3.15-3.07Z"/><path class="cls-6" d="m860.01,186.74c4.21,1.21,8.49,1.46,12.78,1.29-3.48-14.96,1.13-30.17,0-45.29-4.04-.08-8.09-.4-12.13-.81-1.7-.24-3.07-1.29-3.07-3.15,0-1.62,1.38-3.32,3.07-3.15,9.87,1.05,19.57,1.78,29.03-1.54,1.62-.57,3.48.65,3.88,2.18.49,1.7-.57,3.32-2.18,3.88-4.04,1.38-8.17,2.18-12.29,2.43,1.13,14.96-3.8,30.25.08,44.96,3.32-.32,6.55-.73,9.79-.97,4.04-.24,4.04,6.07,0,6.31-10.19.73-20.46,2.83-30.65-.08-3.88-1.13-2.18-7.2,1.7-6.07Z"/><path class="cls-6" d="m899.23,187.72c.89-3.48.16-7.2-.24-10.76-.49-4.37-.24-8.65.4-13.02.57-4.45,1.46-8.73,1.94-13.18.49-4.69.89-9.38,1.05-14.15.16-4.04,6.47-4.04,6.31,0-.16,4.93-.65,9.87-1.13,14.8-.49,4.61-1.37,9.06-2.02,13.59-.65,4.45-.65,8.73-.16,13.1.4,2.99.73,6.15.4,9.14,7.84.24,15.77.97,23.62,1.21,4.04.16,4.04,6.47,0,6.31-9.38-.32-18.84-1.29-28.22-1.29-3.32,0-3.96-4.12-1.94-5.74Z"/></g></g><g class="cls-17"><g class="cls-17"><path class="cls-6" d="m561.45,230.91c-2.26-3.07-3.96-6.79-3.07-10.67.89-4.21,4.61-7.52,8.41-9.22,8.17-3.72,16.9-2.18,25.64-2.59,4.04-.16,3.96,6.07,0,6.31-3.07.16-6.07,0-9.14,0-4.04-.08-8.33-.16-12.21,1.29-2.83.97-6.87,3.4-6.63,6.55.16,2.91,2.91,5.82,5.09,7.92,2.35,2.43,5.09,4.37,7.76,6.47,5.5,4.53,11.81,10.67,10.19,18.52-1.46,7.28-8.9,10.11-14.64,13.42-3.48,2.02-6.63-3.48-3.15-5.5,2.51-1.38,5.1-2.59,7.52-4.12,2.26-1.54,4.37-3.48,4.29-6.31-.08-2.75-1.94-5.34-4.04-7.44-5.18-5.18-11.56-8.73-16.01-14.64Z"/><path class="cls-6" d="m595.09,214.17c-.24-1.78.32-3.4,2.18-3.88,1.46-.4,3.64.49,3.88,2.18,1.13,8.49,2.18,16.98,2.67,25.47.4-.08.81-.16,1.29-.08,4.37-1.62,8.73-3.72,12.29-6.71,2.59-2.18,4.53-4.61,6.07-7.68s2.99-6.15,5.34-8.65c2.75-2.99,7.2,1.46,4.45,4.45-2.43,2.59-3.56,6.07-5.34,9.14s-4.04,5.66-6.79,7.84c-2.83,2.18-5.9,4.04-9.14,5.5,2.18,1.38,4.29,2.75,5.9,4.85,1.94,2.51,3.48,5.18,5.58,7.52,1.94,2.1,4.12,4.04,6.23,5.98,2.99,2.83-1.54,7.28-4.45,4.53-2.1-2.02-4.29-3.96-6.23-6.07-2.02-2.34-3.72-4.85-5.42-7.36-2.26-3.07-5.82-4.61-9.06-6.55-.16.08-.32.08-.48.16,0,2.59,0,5.09-.08,7.68-.08,4.37-.32,8.73.4,13.02.24,1.7-.49,3.4-2.26,3.88-1.46.4-3.56-.49-3.8-2.18-1.29-7.6-.57-15.37-.65-23.05-.49-.97-.49-2.18,0-3.07,0-.24,0-.49-.08-.73-.32-8.73-1.38-17.55-2.51-26.2Z"/></g><g class="cls-17"><path class="cls-6" d="m639.16,256.71c-2.91-4.53-5.82-10.03-5.5-15.61.4-5.18,1.21-10.51,2.51-15.61.97-3.88,2.26-9.71,6.39-11.48,6.39-2.75,12.78,2.1,17.55,5.9,2.26,1.86,4.37,3.8,6.63,5.66,2.83,2.26,5.74,4.61,7.6,7.84,4.12,7.12.81,14.56-3.48,20.78-3.88,5.58-9.95,13.1-17.63,12.29-.97-.16-1.86-.57-2.51-1.21-1.94-.4-3.88-.73-5.58-1.94-2.51-1.7-4.37-4.12-5.98-6.63Zm2.34-8.81c1.46,3.15,3.15,6.39,5.58,8.9,1.05,1.13,2.1,1.86,3.64,2.1,1.78.32,3.48.49,5.18,1.05.57-.16,1.21-.49,1.86-.89,1.7-1.13,3.24-2.59,4.61-4.12,2.51-2.91,5.26-6.47,6.71-10.19,1.46-3.72,1.29-6.87-1.46-9.87-2.51-2.83-5.58-5.09-8.49-7.6-2.34-2.02-4.69-3.96-7.28-5.66-1.38-.81-2.59-1.46-3.72-1.86-.32-.08-.65-.16-.97-.24-.08,0-.16,0-.32-.08-.24,0-.57,0-1.05.08-.08,0-.16.08-.49.24q-.08,0-.32.16c-.08.08-.16.16-.32.49-.81,1.21-.81,1.46-1.21,2.59-1.05,3.07-1.78,6.15-2.35,9.3-.49,2.91-.89,5.34-1.05,8.33-.24,2.67.24,4.61,1.46,7.28Z"/></g><g class="cls-17"><path class="cls-6" d="m677.75,211.98c-.81-3.96,5.26-5.66,6.07-1.7,1.94,9.22,3.56,18.52,5.5,27.66,1.54,7.04,3.15,14.23,5.5,21.03.89-1.46,1.62-2.99,2.34-4.53,2.1-4.53,3.88-9.06,5.42-13.75,3.23-9.38,6.06-19.33,6.31-29.11.08-4.04,6.39-4.04,6.31,0-.24,10.59-3.23,21.27-6.63,31.22-1.78,5.18-3.8,10.27-6.15,15.12-1.7,3.56-3.56,7.04-5.98,10.11-1.21,1.54-4.21,1.13-4.93-.57-7.68-17.55-9.79-36.96-13.75-55.48Z"/><path class="cls-6" d="m717.7,217.65c-.4-1.54.49-3.64,2.18-3.88,10.27-1.54,20.62-1.38,30.89-1.54,4.04-.08,4.04,6.23,0,6.31-8.25.08-16.66-.08-24.91.73.24,4.21.57,8.41.89,12.62,7.92-.4,15.93-1.38,23.94-.97,4.04.24,4.04,6.47,0,6.31-7.84-.41-15.61.48-23.45.89.65,7.6,1.21,15.12,1.46,22.72,7.36-1.78,15.12-3.4,22.64-2.02,1.7.24,2.67,2.26,2.18,3.8-.49,1.78-2.18,2.51-3.88,2.26-3.32-.65-6.96-.24-10.27.24-3.88.57-7.68,1.46-11.48,2.34-1.05.24-1.86.08-2.51-.4-1.46-.08-2.91-1.13-2.91-2.99-.16-8.9-.89-17.71-1.54-26.53-1.21-1.05-1.38-3.07-.4-4.37-.32-4.53-.65-8.98-.89-13.51-.89-.32-1.62-.97-1.94-2.02Z"/><path class="cls-6" d="m761.61,220.31c-2.43-2.59.65-6.23,3.32-5.26,1.7-.16,3.56.81,3.56,3.07v.32c5.26,5.82,10.19,12.13,14.07,19,1.78,3.15,3.32,6.47,4.69,9.87,0-4.29.32-8.57.89-12.86,1.13-9.06,2.59-18.12,2.59-27.25.08-4.04,6.31-4.04,6.31,0,0,9.38-1.54,18.6-2.67,27.9-.57,4.69-.89,9.3-.81,13.99.08,4.45.32,8.9.08,13.34-.08,3.15-4.12,4.21-5.82,1.62-2.43-3.72-3.88-7.76-5.42-11.89-1.46-3.8-2.99-7.52-5.01-11.08-2.59-4.61-5.66-8.9-8.98-13.02,0,4.21,0,8.49.16,12.7.24,7.52,1.21,14.96,2.18,22.4.24,1.7-1.62,3.15-3.15,3.15-1.86,0-2.91-1.46-3.15-3.15-.97-7.44-1.94-14.88-2.18-22.4-.24-6.63-.08-13.26-.08-19.81-.16-.24-.4-.4-.57-.65Z"/></g></g></g></svg>